<svg xmlns="http://www.w3.org/2000/svg" width="100%" height="100%" fill="none" viewBox="0 0 3500 3000"
  id="financial-strategy">
  <g clip-path="url(#clip0_101_35917)">
    <path fill="#F1F1F1" fill-rule="evenodd"
      d="M1038.44 962.393C1038.44 939.872 1056.7 921.616 1079.22 921.616H2322.93C2345.45 921.616 2363.71 939.872 2363.71 962.393V2600.29C2363.71 2622.81 2345.45 2641.07 2322.93 2641.07H1079.22C1056.7 2641.07 1038.44 2622.81 1038.44 2600.29V962.393zM1079.22 935.208C1064.2 935.208 1052.03 947.379 1052.03 962.393V2600.29C1052.03 2615.3 1064.2 2627.48 1079.22 2627.48H2322.93C2337.95 2627.48 2350.12 2615.3 2350.12 2600.29V962.393C2350.12 947.379 2337.95 935.208 2322.93 935.208H1079.22zM327.485 852.481C366.044 960.135 468.971 1037.15 589.887 1037.15 743.779 1037.15 868.533 912.398 868.533 758.505 868.533 604.613 743.779 479.859 589.887 479.859 554.858 479.859 521.338 486.323 490.456 498.122L583.09 755.107 327.485 852.481z"
      clip-rule="evenodd"></path>
    <path fill="#F1F1F1" fill-rule="evenodd"
      d="M450.071 517.423L532.119 728.383L317.531 817.653C313.41 798.59 311.24 778.801 311.24 758.506C311.24 655.571 367.055 565.672 450.071 517.423Z"
      clip-rule="evenodd"></path>
    <path fill="#fff"
      d="M583.091 792.487C583.091 773.719 598.305 758.505 617.072 758.505H2173.41C2192.18 758.505 2207.4 773.719 2207.4 792.487V2464.37C2207.4 2483.13 2192.18 2498.35 2173.41 2498.35H617.072C598.305 2498.35 583.091 2483.13 583.091 2464.37V792.487Z">
    </path>
    <path fill="#3E3D3D" fill-rule="evenodd"
      d="M576.294 792.487C576.294 769.966 594.551 751.709 617.072 751.709H2173.41C2195.94 751.709 2214.19 769.966 2214.19 792.487V2464.37C2214.19 2486.89 2195.94 2505.14 2173.41 2505.14H617.072C594.551 2505.14 576.294 2486.89 576.294 2464.37V792.487ZM617.072 765.301C602.058 765.301 589.887 777.473 589.887 792.487V2464.37C589.887 2479.38 602.058 2491.55 617.072 2491.55H2173.41C2188.43 2491.55 2200.6 2479.38 2200.6 2464.37V792.487C2200.6 777.473 2188.43 765.301 2173.41 765.301H617.072Z"
      clip-rule="evenodd"></path>
    <path fill="#3E3D3D" fill-rule="evenodd"
      d="M841.349 1492.5H1344.27V1703.18H841.349V1492.5ZM854.941 1506.09V1689.59H1330.68V1506.09H854.941Z"
      clip-rule="evenodd"></path>
    <path fill="#F15846" fill-rule="evenodd" d="M1208.35 1591.05H936.496V1577.45H1208.35V1591.05Z" clip-rule="evenodd">
    </path>
    <path fill="#3E3D3D" fill-rule="evenodd"
      d="M-1.38721 2821.17C-1.38721 2817.42 1.65558 2814.37 5.40905 2814.37H2706.92C2710.67 2814.37 2713.72 2817.42 2713.72 2821.17C2713.72 2824.92 2710.67 2827.97 2706.92 2827.97H5.40905C1.65558 2827.97 -1.38721 2824.92 -1.38721 2821.17Z"
      clip-rule="evenodd"></path>
    <path fill="#F15846"
      d="M1860.79 1777.94H2003.51V2274.07H1860.79V1777.94zM1609.33 1913.87H1752.05V2274.07H1609.33V1913.87zM1357.86 2036.2H1500.59V2274.07H1357.86V2036.2z">
    </path>
    <path fill="#F1F1F1" fill-rule="evenodd"
      d="M2074.87 1689.59H1493.79V1676H2088.46V2345.43H1184.56V2172.13H1198.15V2331.84H2074.87V1689.59Z"
      clip-rule="evenodd"></path>
    <path fill="#3E3D3D" fill-rule="evenodd"
      d="M1650.1 1832.31H1364.66V1818.72H1650.1V1832.31zM1500.59 1934.26H1364.66V1920.67H1500.59V1934.26zM1425.83 989.578H848.145V975.986H1425.83V989.578zM1425.83 1156.09H848.145V1142.49H1425.83V1156.09zM1425.83 1322.59H848.145V1309H1425.83V1322.59z"
      clip-rule="evenodd"></path>
    <path fill="#F1F1F1" fill-rule="evenodd"
      d="M2564.06 1462.41C2569 1454.23 2579.63 1451.6 2587.81 1456.53L2636.35 1485.79C2644.53 1490.72 2647.16 1501.36 2642.23 1509.54 2638.19 1516.24 2639.23 1524.76 2644.21 1530.8 2658.16 1547.72 2668.65 1566.95 2675.4 1587.35 2677.86 1594.79 2684.54 1600.21 2692.37 1600.36 2701.94 1600.54 2709.55 1608.44 2709.37 1618.01L2708.3 1674.64C2708.12 1684.19 2700.22 1691.79 2690.66 1691.61 2682.84 1691.47 2675.98 1696.62 2673.23 1703.94 2669.5 1713.92 2664.79 1723.7 2659.09 1733.15 2653.39 1742.6 2646.94 1751.33 2639.87 1759.29 2634.67 1765.14 2633.32 1773.62 2637.1 1780.46 2641.72 1788.83 2638.69 1799.36 2630.32 1803.98L2580.75 1831.37C2572.37 1836 2561.83 1832.96 2557.2 1824.58 2553.41 1817.72 2545.5 1814.35 2537.77 1815.64 2516.58 1819.2 2494.68 1818.9 2473.2 1814.46 2465.54 1812.88 2457.52 1815.94 2453.48 1822.64 2448.54 1830.82 2437.91 1833.46 2429.73 1828.53L2381.19 1799.26C2373.01 1794.33 2370.38 1783.7 2375.31 1775.52 2379.35 1768.82 2378.31 1760.29 2373.33 1754.25 2359.38 1737.34 2348.89 1718.11 2342.14 1697.7 2339.68 1690.27 2333.01 1684.85 2325.17 1684.7 2315.6 1684.52 2307.99 1676.61 2308.17 1667.05L2309.24 1610.42C2309.42 1600.86 2317.32 1593.26 2326.88 1593.44 2334.7 1593.59 2341.56 1588.44 2344.31 1581.11 2348.05 1571.14 2352.75 1561.36 2358.45 1551.91 2364.15 1542.45 2370.6 1533.73 2377.68 1525.76 2382.87 1519.92 2384.22 1511.44 2380.44 1504.59 2375.82 1496.23 2378.85 1485.7 2387.22 1481.07L2436.8 1453.69C2445.17 1449.06 2455.72 1452.1 2460.34 1460.48 2464.13 1467.34 2472.04 1470.71 2479.77 1469.41 2500.96 1465.85 2522.86 1466.15 2544.34 1470.6 2552 1472.18 2560.02 1469.12 2564.06 1462.41zM2593.78 1693.78C2565.48 1740.73 2504.47 1755.84 2457.52 1727.54 2410.57 1699.23 2395.46 1638.23 2423.76 1591.28 2452.07 1544.33 2513.07 1529.21 2560.02 1557.52 2606.97 1585.82 2622.09 1646.83 2593.78 1693.78zM2489.35 1970.31C2492.84 1964.51 2500.38 1962.65 2506.17 1966.14L2540.57 1986.88C2546.37 1990.37 2548.24 1997.91 2544.74 2003.71 2541.88 2008.46 2542.61 2014.5 2546.14 2018.78 2556.03 2030.77 2563.47 2044.39 2568.25 2058.85 2569.99 2064.12 2574.72 2067.96 2580.27 2068.07 2587.05 2068.2 2592.45 2073.8 2592.32 2080.58L2591.56 2120.71C2591.43 2127.48 2585.84 2132.87 2579.06 2132.74 2573.52 2132.64 2568.66 2136.29 2566.71 2141.48 2564.06 2148.55 2560.73 2155.48 2556.69 2162.18 2552.65 2168.88 2548.08 2175.06 2543.06 2180.7 2539.38 2184.85 2538.43 2190.85 2541.11 2195.71 2544.38 2201.64 2542.23 2209.1 2536.3 2212.38L2501.17 2231.78C2495.23 2235.06 2487.76 2232.91 2484.48 2226.97 2481.79 2222.11 2476.19 2219.72 2470.71 2220.64 2455.69 2223.16 2440.17 2222.95 2424.95 2219.8 2419.52 2218.68 2413.84 2220.85 2410.97 2225.6 2407.48 2231.4 2399.94 2233.26 2394.15 2229.77L2359.75 2209.03C2353.95 2205.54 2352.08 2198 2355.58 2192.2 2358.44 2187.45 2357.71 2181.41 2354.18 2177.13 2344.29 2165.15 2336.85 2151.52 2332.07 2137.06 2330.33 2131.79 2325.6 2127.95 2320.05 2127.84 2313.26 2127.71 2307.87 2122.11 2308 2115.33L2308.76 2075.2C2308.89 2068.43 2314.48 2063.04 2321.25 2063.17 2326.8 2063.27 2331.66 2059.62 2333.61 2054.43 2336.25 2047.36 2339.59 2040.43 2343.63 2033.73 2347.67 2027.03 2352.24 2020.85 2357.25 2015.21 2360.94 2011.06 2361.89 2005.06 2359.21 2000.2 2355.94 1994.27 2358.09 1986.81 2364.02 1983.54L2399.15 1964.13C2405.09 1960.85 2412.56 1963 2415.84 1968.94 2418.52 1973.8 2424.13 1976.19 2429.6 1975.27 2444.62 1972.75 2460.15 1972.96 2475.37 1976.11 2480.8 1977.23 2486.48 1975.06 2489.35 1970.31zM2510.4 2134.27C2490.35 2167.55 2447.11 2178.26 2413.84 2158.2 2380.57 2138.14 2369.85 2094.91 2389.91 2061.64 2409.97 2028.36 2453.21 2017.65 2486.48 2037.71 2519.75 2057.77 2530.46 2101 2510.4 2134.27z"
      clip-rule="evenodd"></path>
    <path fill="#F15846"
      d="M1847.19 850.255C1847.19 867.146 1833.5 880.838 1816.61 880.838C1799.72 880.838 1786.03 867.146 1786.03 850.255C1786.03 833.364 1799.72 819.672 1816.61 819.672C1833.5 819.672 1847.19 833.364 1847.19 850.255Z">
    </path>
    <path fill="#F1F1F1"
      d="M2051.08 850.255C2051.08 867.146 2037.39 880.838 2020.5 880.838 2003.61 880.838 1989.92 867.146 1989.92 850.255 1989.92 833.364 2003.61 819.672 2020.5 819.672 2037.39 819.672 2051.08 833.364 2051.08 850.255zM1643.31 850.255C1643.31 867.146 1629.61 880.838 1612.72 880.838 1595.83 880.838 1582.14 867.146 1582.14 850.255 1582.14 833.364 1595.83 819.672 1612.72 819.672 1629.61 819.672 1643.31 833.364 1643.31 850.255z">
    </path>
    <path fill="#F15846" d="M2037.49 2743.01H2533.62V2817.77H2037.49V2743.01Z"></path>
    <path fill="#F1F1F1"
      d="M1976.32 2668.25H2472.45V2743.01H1976.32V2668.25zM2010.3 2593.49H2506.43V2668.25H2010.3V2593.49z"></path>
    <path fill="#F15846"
      d="M695.229 1706.58C605.518 1698.43 503.801 1703.19 464.156 1706.58C460.758 1715.64 453.962 1734.45 453.962 1737.17C453.962 1740.56 474.35 1835.71 474.35 1849.3C474.35 1860.18 596.683 1878.75 657.849 1886.68C707.689 1830.05 784.939 1714.74 695.229 1706.58Z">
    </path>
    <path fill="#EFCB96"
      d="M484.546 1567.26H674.841V1798.33H484.546V1567.26zM1201.55 1648.82C1206.98 1673.28 1197.02 1686.19 1191.35 1689.59L1211.74 1737.17 1279.7 1764.35C1286.5 1755.29 1306.21 1733.09 1330.68 1716.78 1361.26 1696.39 1381.65 1652.21 1385.05 1631.82 1387.77 1615.51 1377.12 1609.17 1371.45 1608.04 1374.17 1597.16 1363.53 1589.91 1357.86 1587.65 1355.14 1574.06 1340.87 1570.66 1334.07 1570.66L1364.51 1515.32C1368.47 1508.12 1366.42 1499.1 1359.73 1494.32 1352.9 1489.45 1343.48 1490.59 1338.02 1496.96L1245.72 1604.64 1223.91 1544.64C1220.84 1536.2 1211.98 1531.34 1203.21 1533.29 1194.47 1535.23 1188.5 1543.32 1189.33 1552.23 1192.12 1582.53 1196.99 1628.32 1201.55 1648.82z">
    </path>
    <path fill="#3E3D3D" d="M341.824 2603.69L328.231 2821.17H885.524L871.932 2603.69H341.824Z"></path>
    <path fill="#F15846"
      d="M885.523 2472.47C877.367 2426.25 882.125 2176.83 885.523 2057.9C934.23 2090.74 1039.12 2155.08 1069.02 2149.65C1098.93 2144.21 1117.73 2115.66 1123.39 2102.07L1283.1 1775.85C1255.92 1721.48 1203.81 1694.3 1181.16 1687.5L1024.85 1884.59C1002.19 1860.8 942.612 1803.72 885.523 1765.66C828.434 1727.6 732.607 1711.29 695.228 1707.89C685.033 1732.81 653.091 1782.65 579.691 1782.65C506.292 1782.65 474.35 1732.81 464.155 1707.89C355.415 1738.47 284.054 1758.86 246.675 1809.83C209.296 1860.8 188.906 1979.74 165.119 2064.69C141.333 2149.65 151.527 2207.41 168.518 2227.8C182.11 2244.11 280.656 2343.34 328.23 2390.91C327.097 2433.96 323.473 2531.59 318.036 2577.81C311.239 2635.58 365.61 2638.98 416.581 2628.78C467.553 2618.59 739.404 2621.99 824.357 2628.78C909.31 2635.58 895.717 2530.24 885.523 2472.47Z">
    </path>
    <path fill="#EFCB96"
      d="M566.099 2433.98C536.196 2412.23 501.535 2406.6 487.942 2396.4L528.72 2474.76L566.099 2433.98Z"></path>
    <path fill="#fff"
      d="M613.888 2365.01C626.078 2350.74 647.528 2349.05 661.797 2361.24L814.309 2491.53C828.578 2503.71 830.264 2525.16 818.074 2539.43L650.329 2735.8C638.14 2750.07 616.69 2751.75 602.42 2739.56L449.909 2609.28C435.64 2597.09 433.954 2575.64 446.143 2561.37L613.888 2365.01Z">
    </path>
    <path fill="#EFCB96"
      d="M698.627 1366.77C744.841 1499.98 702.025 1571.79 674.84 1591.05L484.545 1614.83L447.165 1591.05L402.99 1506.09L467.554 1366.77C525.322 1311.27 652.412 1233.56 698.627 1366.77Z">
    </path>
    <path fill="#3E3D3D"
      d="M476.999 1622.51C442.113 1613.32 388.36 1579.26 386 1506.09C382.602 1400.75 392.797 1315.8 464.157 1309C467.555 1282.95 487.265 1229.49 538.916 1224.05C603.481 1217.25 685.036 1224.05 725.813 1203.66C766.591 1183.27 776.785 1203.66 790.378 1217.25C803.97 1230.85 814.165 1353.18 691.832 1366.77C662.371 1370.04 639.217 1370.76 620.471 1370.33C592.153 1370.28 534.159 1379 528.722 1414.34C521.926 1458.52 528.722 1502.7 515.129 1502.7C501.537 1502.7 511.731 1478.91 484.546 1458.52C469.821 1457.39 440.37 1464.64 440.37 1502.7C440.37 1527.01 455.164 1538.75 469.689 1543.76C480.916 1547.64 491.342 1557.01 491.342 1568.89V1610.43C491.342 1618.32 484.627 1624.52 476.999 1622.51Z">
    </path>
    <path fill="#EFCB96"
      d="M477.749 2386.21C466.875 2405.24 441.502 2432.65 430.175 2443.98C447.166 2457.57 443.768 2474.56 460.758 2508.54C477.749 2542.52 525.323 2556.12 555.906 2562.91C580.373 2568.35 588.755 2562.91 589.887 2559.51C600.761 2559.51 603.48 2550.45 603.48 2545.92C613.674 2545.92 618.205 2532.33 610.276 2525.53C626.587 2520.1 617.072 2509.67 610.276 2505.14C569.499 2501.75 549.11 2481.36 535.517 2450.77C524.643 2426.31 492.474 2397.54 477.749 2386.21Z">
    </path>
    <path fill="#3E3D3D" fill-rule="evenodd"
      d="M888.922 1975.04V2056.59H882.125V1975.04H888.922ZM331.795 2143.4L345.247 2035.78L351.991 2036.62L338.539 2144.24C336.389 2161.44 341.246 2178.79 352.019 2192.37L492.066 2368.95L480.662 2387.96L474.834 2384.46L483.818 2369.49L346.694 2196.59C334.788 2181.58 329.419 2162.41 331.795 2143.4Z"
      clip-rule="evenodd"></path>
    <path fill="#F1F1F1" fill-rule="evenodd" d="M2207.4 656.562H1031.64V622.581H2207.4V656.562Z" clip-rule="evenodd">
    </path>
    <path fill="#F15846"
      d="M2057.88 1237.64C2057.88 1359.63 1958.99 1458.52 1837 1458.52C1715.01 1458.52 1616.12 1359.63 1616.12 1237.64C1616.12 1115.65 1715.01 1016.76 1837 1016.76C1958.99 1016.76 2057.88 1115.65 2057.88 1237.64Z">
    </path>
    <path fill="#fff" fill-rule="evenodd"
      d="M1840.4 1084.73C1851.66 1084.73 1860.79 1093.85 1860.79 1105.11V1114.58C1898.51 1115.7 1928.75 1146.63 1928.75 1184.63H1887.97C1887.97 1168.44 1874.85 1155.32 1858.66 1155.32H1825.45C1807.43 1155.32 1792.82 1169.93 1792.82 1187.94C1792.82 1205.96 1807.43 1220.57 1825.45 1220.57H1858.66C1897.37 1220.57 1928.75 1251.94 1928.75 1290.65C1928.75 1328.65 1898.51 1359.58 1860.79 1360.71V1370.17C1860.79 1381.43 1851.66 1390.56 1840.4 1390.56C1829.14 1390.56 1820.01 1381.43 1820.01 1370.17V1360.74H1815.51C1780.46 1360.74 1752.05 1332.33 1752.05 1297.28H1792.82C1792.82 1309.81 1802.98 1319.96 1815.51 1319.96H1858.66C1874.85 1319.96 1887.97 1306.84 1887.97 1290.65C1887.97 1274.47 1874.85 1261.34 1858.66 1261.34H1825.45C1784.91 1261.34 1752.05 1228.48 1752.05 1187.94C1752.05 1149.24 1782.01 1117.53 1820.01 1114.74V1105.11C1820.01 1093.85 1829.14 1084.73 1840.4 1084.73Z"
      clip-rule="evenodd"></path>
    <path fill="#F15846" fill-rule="evenodd"
      d="M2702.54 307.08C2709.52 295.503 2724.56 291.776 2736.14 298.755L2804.82 340.157C2816.39 347.136 2820.12 362.178 2813.14 373.755C2807.43 383.238 2808.89 395.3 2815.94 403.842C2835.68 427.779 2850.53 454.982 2860.07 483.854C2863.55 494.38 2873 502.046 2884.08 502.255C2897.62 502.512 2908.39 513.695 2908.13 527.234L2906.62 607.353C2906.36 620.876 2895.19 631.631 2881.67 631.376C2870.6 631.166 2860.89 638.454 2857.01 648.818C2851.72 662.935 2845.06 676.768 2837 690.146C2828.93 703.523 2819.81 715.867 2809.79 727.136C2802.44 735.409 2800.53 747.4 2805.88 757.088C2812.42 768.927 2808.13 783.827 2796.29 790.366L2726.15 829.113C2714.29 835.661 2699.37 831.36 2692.83 819.507C2687.47 809.802 2676.28 805.029 2665.34 806.866C2635.36 811.904 2604.37 811.478 2573.98 805.192C2563.14 802.949 2551.79 807.285 2546.07 816.768C2539.09 828.345 2524.05 832.072 2512.47 825.093L2443.8 783.691C2432.22 776.712 2428.49 761.67 2435.47 750.093C2441.19 740.61 2439.72 728.548 2432.68 720.007C2412.93 696.07 2398.09 668.866 2388.54 639.994C2385.06 629.467 2375.61 621.802 2364.53 621.592C2350.99 621.336 2340.22 610.153 2340.48 596.613L2341.99 516.495C2342.25 502.971 2353.42 492.216 2366.94 492.472C2378.01 492.681 2387.72 485.394 2391.61 475.03C2396.89 460.913 2403.55 447.08 2411.61 433.702C2419.68 420.325 2428.81 407.981 2438.82 396.712C2446.17 388.439 2448.08 376.448 2442.73 366.76C2436.19 354.921 2440.49 340.021 2452.32 333.482L2522.47 294.735C2534.32 288.187 2549.24 292.488 2555.79 304.341C2561.15 314.046 2572.34 318.819 2583.27 316.982C2613.26 311.944 2644.24 312.37 2674.63 318.656C2685.48 320.899 2696.83 316.563 2702.54 307.08ZM2744.59 634.436C2704.54 700.866 2618.22 722.253 2551.79 682.206C2485.36 642.158 2463.98 555.841 2504.02 489.412C2544.07 422.982 2630.39 401.595 2696.82 441.642C2763.25 481.69 2784.64 568.006 2744.59 634.436Z"
      clip-rule="evenodd"></path>
  </g>
  <defs>
    <clipPath id="clip0_101_35917">
      <rect width="100%" height="100%" fill="#fff" transform="translate(.44)"></rect>
    </clipPath>
  </defs>
</svg>